HIERARCHY
ROOT Hips
{
	OFFSET 54.706501 -35.627014 91.551392
	CHANNELS 6 Xposition Yposition Zposition Xrotation Yrotation Zrotation
	JOINT spine
	{
		OFFSET 0.000000 -0.393700 6.846367
		CHANNELS 3 Xrotation Yrotation Zrotation
		JOINT spine1
		{
			OFFSET 0.000000 -0.000004 9.496208
			CHANNELS 3 Xrotation Yrotation Zrotation
			JOINT spine2
			{
				OFFSET 0.000000 0.000000 9.099091
				CHANNELS 3 Xrotation Yrotation Zrotation
				JOINT Neck
				{
					OFFSET 0.000000 -1.113785 23.361206
					CHANNELS 3 Xrotation Yrotation Zrotation
					JOINT Head
					{
						OFFSET 0.000000 0.000000 7.058014
						CHANNELS 3 Xrotation Yrotation Zrotation
						End Site
						{
							OFFSET 0.000000 5.634176 17.084396
						}
					}
				}
				JOINT RightShoulder
				{
					OFFSET -3.831360 0.533489 9.826309
					CHANNELS 3 Xrotation Yrotation Zrotation
					JOINT RightArm
					{
						OFFSET 0.000000 -0.000004 12.888107
						CHANNELS 3 Xrotation Yrotation Zrotation
						JOINT RightArmRoll
						{
							OFFSET 0.000000 0.000000 6.506165
							CHANNELS 3 Xrotation Yrotation Zrotation
							JOINT RightForeArm
							{
								OFFSET 0.000000 -0.000004 18.950104
								CHANNELS 3 Xrotation Yrotation Zrotation
								JOINT RightForeArmRoll
								{
									OFFSET 0.000000 0.000000 7.300934
									CHANNELS 3 Xrotation Yrotation Zrotation
									JOINT RightHand
									{
										OFFSET 0.000000 -0.000004 14.651398
										CHANNELS 3 Xrotation Yrotation Zrotation
										End Site
										{
											OFFSET 0.000000 0.000000 0.100006
										}
									}
								}
							}
						}
					}
				}
				JOINT LeftShoulder
				{
					OFFSET 3.831360 0.533489 9.826309
					CHANNELS 3 Xrotation Yrotation Zrotation
					JOINT LeftArm
					{
						OFFSET 0.000000 -0.000004 12.888107
						CHANNELS 3 Xrotation Yrotation Zrotation
						JOINT LeftArmRoll
						{
							OFFSET 0.000000 0.000000 6.506165
							CHANNELS 3 Xrotation Yrotation Zrotation
							JOINT LeftForeArm
							{
								OFFSET 0.000000 -0.000004 18.950104
								CHANNELS 3 Xrotation Yrotation Zrotation
								JOINT LeftForeArmRoll
								{
									OFFSET 0.000000 0.000000 7.300934
									CHANNELS 3 Xrotation Yrotation Zrotation
									JOINT LeftHand
									{
										OFFSET 0.000000 -0.000004 14.651398
										CHANNELS 3 Xrotation Yrotation Zrotation
										End Site
										{
											OFFSET 0.000000 0.000000 0.100006
										}
									}
								}
							}
						}
					}
				}
			}
		}
	}
	JOINT RightUpLeg
	{
		OFFSET -6.068371 0.933475 -1.112778
		CHANNELS 3 Xrotation Yrotation Zrotation
		JOINT RightUpLegRoll
		{
			OFFSET 0.000000 -0.000004 17.179604
			CHANNELS 3 Xrotation Yrotation Zrotation
			JOINT RightLeg
			{
				OFFSET 0.000000 0.000004 -21.274300
				CHANNELS 3 Xrotation Yrotation Zrotation
				JOINT RightLegRoll
				{
					OFFSET 0.000000 -0.000004 21.343903
					CHANNELS 3 Xrotation Yrotation Zrotation
					JOINT RightFoot
					{
						OFFSET 0.000000 0.000000 17.765198
						CHANNELS 3 Xrotation Yrotation Zrotation
						JOINT RightToeBase
						{
							OFFSET 0.000000 -0.000004 14.850815
							CHANNELS 3 Xrotation Yrotation Zrotation
							End Site
							{
								OFFSET 0.006294 0.829006 7.192139
							}
						}
					}
				}
			}
		}
	}
	JOINT LeftUpLeg
	{
		OFFSET 6.068371 0.933475 -1.112778
		CHANNELS 3 Xrotation Yrotation Zrotation
		JOINT LeftUpLegRoll
		{
			OFFSET 0.000000 -0.000004 17.179703
			CHANNELS 3 Xrotation Yrotation Zrotation
			JOINT LeftLeg
			{
				OFFSET 0.000000 -0.000004 21.274200
				CHANNELS 3 Xrotation Yrotation Zrotation
				JOINT LeftLegRoll
				{
					OFFSET 0.000000 0.000000 21.541199
					CHANNELS 3 Xrotation Yrotation Zrotation
					JOINT LeftFoot
					{
						OFFSET 0.000000 -0.000004 17.567902
						CHANNELS 3 Xrotation Yrotation Zrotation
						JOINT LeftToeBase
						{
							OFFSET 0.000000 -0.000004 14.850800
							CHANNELS 3 Xrotation Yrotation Zrotation
							End Site
							{
								OFFSET -0.028210 0.829006 7.192139
							}
						}
					}
				}
			}
		}
	}
}
MOTION
Frames: 10
Frame Time: 0.041667
52.818302 6.582664 58.683983 0.490951 3.087908 -3.562288 -1.088863 -0.374154 0.218170 1.836397 -0.750257 0.439925 3.481505 -0.744934 0.448881 8.654881 -3.449653 1.399255 0.968039 3.733089 1.442386 9.291536 -73.842165 8.351851 -68.560455 -118.736514 -80.519317 0.000001 -0.000000 -0.000006 35.927966 -16.730190 4.878335 -0.000008 -0.000002 -2.999979 -4.999908 -7.998884 0.000031 -12.218706 56.977131 14.322609 -48.768299 132.945234 48.698952 -0.000001 0.000001 0.000002 19.892111 19.348558 -2.741984 0.000001 -0.000004 2.999990 -5.000253 7.999189 -0.000194 -82.068452 -177.447290 3.791606 179.999991 -0.000004 -1.247993 106.279444 -1.191133 -3.704627 0.000003 0.000001 1.682321 67.088037 7.248968 1.358703 25.456957 -7.355616 0.000003 -84.931729 162.324964 -1.152207 -0.000004 -0.000004 -0.834508 -79.961762 -1.350812 2.815680 -0.000009 -0.000001 -1.951030 67.317730 -7.241120 -1.388784 25.456953 7.355615 -0.000011 
52.803104 6.585289 58.695694 0.493736 3.101026 -3.564130 -1.088261 -0.377144 0.218320 1.836910 -0.756238 0.440526 3.482020 -0.750908 0.449554 8.691238 -3.427907 1.403106 0.942223 3.718028 1.444885 9.325087 -73.833197 8.389515 -68.573200 -118.730476 -80.542315 0.000001 -0.000001 -0.000006 35.934776 -16.733982 4.881311 -0.000006 -0.000000 -2.999983 -4.999905 -7.998885 0.000029 -12.193194 56.984087 14.292312 -48.781365 132.933650 48.712380 -0.000001 0.000001 0.000003 19.890891 19.351557 -2.742692 0.000000 -0.000005 2.999989 -5.000254 7.999187 -0.000194 -82.066478 -177.454120 3.798577 179.999991 -0.000004 -1.247993 106.283829 -1.198492 -3.709538 0.000003 0.000001 1.682321 67.094663 7.248956 1.358765 25.456957 -7.355617 0.000003 -84.937179 162.316891 -1.141226 -0.000005 -0.000005 -0.834895 -79.955656 -1.352709 2.813620 -0.000009 -0.000001 -1.951458 67.315510 -7.241110 -1.388228 25.456957 7.355615 -0.000014 
52.766495 6.564861 58.696388 0.496537 3.114763 -3.566031 -1.087684 -0.380268 0.218457 1.837333 -0.762487 0.441138 3.482444 -0.757149 0.450241 8.727915 -3.406032 1.406994 0.916472 3.702737 1.447429 9.359930 -73.824387 8.428552 -68.585584 -118.724097 -80.564595 -0.000000 -0.000001 -0.000007 35.941668 -16.737759 4.884278 -0.000008 -0.000001 -2.999980 -4.999908 -7.998888 0.000026 -12.167144 56.991512 14.261388 -48.794209 132.921929 48.724995 0.000000 0.000001 0.000002 19.889748 19.354357 -2.743313 0.000001 -0.000004 2.999991 -5.000254 7.999191 -0.000193 -82.064436 -177.461224 3.805523 179.999991 -0.000004 -1.247993 106.288419 -1.205869 -3.714429 0.000004 0.000000 1.682320 67.101602 7.248934 1.358803 25.456959 -7.355615 0.000003 -84.942835 162.308353 -1.129626 -0.000005 -0.000005 -0.835315 -79.949365 -1.354710 2.811430 -0.000009 -0.000001 -1.951910 67.313201 -7.241126 -1.387685 25.456953 7.355614 -0.000014 
52.780201 6.568920 58.697178 0.499355 3.128931 -3.567977 -1.087142 -0.383484 0.218586 1.837686 -0.768924 0.441757 3.482799 -0.763576 0.450937 8.764832 -3.384069 1.410898 0.890762 3.687285 1.450011 9.395731 -73.815726 8.468608 -68.599613 -118.717239 -80.588487 -0.000001 -0.000000 -0.000005 35.948655 -16.741434 4.887182 -0.000006 -0.000001 -2.999981 -4.999911 -7.998886 0.000029 -12.140706 56.999155 14.230020 -48.807654 132.909430 48.738082 0.000000 0.000001 0.000003 19.888794 19.356944 -2.743882 -0.000000 -0.000005 2.999990 -5.000255 7.999191 -0.000192 -82.062196 -177.468559 3.812865 179.999991 -0.000005 -1.247993 106.293077 -1.213536 -3.719279 0.000003 0.000000 1.682321 67.108644 7.248923 1.358935 25.456955 -7.355616 0.000003 -84.948470 162.299706 -1.118338 -0.000004 -0.000005 -0.835759 -79.942877 -1.356791 2.809152 -0.000009 -0.000001 -1.952369 67.310783 -7.241137 -1.387145 25.456952 7.355616 -0.000012 
52.777905 6.573841 58.693989 0.502173 3.143351 -3.569948 -1.086604 -0.386755 0.218710 1.838009 -0.775466 0.442381 3.483125 -0.770111 0.451638 8.801867 -3.362068 1.414800 0.865075 3.671753 1.452607 9.432030 -73.807038 8.509185 -68.613471 -118.710218 -80.612010 -0.000001 -0.000001 -0.000006 35.955735 -16.744999 4.890046 -0.000007 -0.000000 -2.999979 -4.999909 -7.998883 0.000029 -12.114051 57.007023 14.198400 -48.820987 132.896889 48.750827 0.000001 0.000001 0.000002 19.887837 19.359439 -2.744405 -0.000002 -0.000002 2.999990 -5.000250 7.999191 -0.000193 -82.059839 -177.476018 3.820401 179.999991 -0.000004 -1.247993 106.297831 -1.221214 -3.724125 0.000002 0.000001 1.682321 67.115795 7.248922 1.359064 25.456955 -7.355616 0.000003 -84.954398 162.290868 -1.106113 -0.000005 -0.000004 -0.836216 -79.936306 -1.358917 2.806898 -0.000009 -0.000001 -1.952840 67.308366 -7.241145 -1.386608 25.456959 7.355613 -0.000011 
52.776905 6.569351 58.693085 0.505000 3.157838 -3.571920 -1.086073 -0.390038 0.218832 1.838321 -0.782035 0.443007 3.483441 -0.776673 0.452342 8.838944 -3.340040 1.418679 0.839398 3.656188 1.455189 9.468414 -73.798432 8.549858 -68.628942 -118.702746 -80.637405 0.000000 -0.000001 -0.000004 35.962817 -16.748648 4.892965 -0.000008 -0.000002 -2.999978 -4.999909 -7.998887 0.000029 -12.087300 57.014786 14.166667 -48.834220 132.884254 48.763449 -0.000001 0.000001 0.000002 19.886869 19.361935 -2.744917 -0.000001 -0.000003 2.999991 -5.000253 7.999189 -0.000194 -82.057483 -177.483476 3.827831 179.999991 -0.000005 -1.247993 106.302592 -1.228902 -3.728982 0.000003 0.000001 1.682321 67.122967 7.248955 1.358998 25.456957 -7.355616 0.000003 -84.960327 162.282044 -1.093892 -0.000005 -0.000005 -0.836676 -79.929722 -1.361050 2.804613 -0.000008 -0.000001 -1.953310 67.306043 -7.241122 -1.386055 25.456952 7.355613 -0.000013 
52.797005 6.568497 58.671989 0.507819 3.172186 -3.573893 -1.085536 -0.393295 0.218958 1.838655 -0.788551 0.443629 3.483766 -0.783181 0.453043 8.875946 -3.318035 1.422518 0.813706 3.640664 1.457737 9.504551 -73.789839 8.590267 -68.642896 -118.695806 -80.661010 0.000001 -0.000001 -0.000006 35.969917 -16.752299 4.895882 -0.000008 -0.000002 -2.999980 -4.999912 -7.998882 0.000027 -12.060668 57.022541 14.135065 -48.847703 132.871768 48.776382 -0.000002 0.000000 0.000002 19.885905 19.364428 -2.745441 0.000002 -0.000003 2.999989 -5.000254 7.999191 -0.000192 -82.055236 -177.490976 3.835562 179.999991 -0.000004 -1.247993 106.307318 -1.236867 -3.734769 0.000002 0.000001 1.682321 67.130022 7.248979 1.359138 25.456953 -7.355615 0.000003 -84.966249 162.273123 -1.081669 -0.000005 -0.000003 -0.837130 -79.923240 -1.363153 2.802325 -0.000009 -0.000001 -1.953779 67.303625 -7.241131 -1.385514 25.456953 7.355611 -0.000012 
52.792301 6.567280 58.673893 0.510627 3.186235 -3.575833 -1.084986 -0.396485 0.219089 1.839027 -0.794932 0.444246 3.484142 -0.789555 0.453737 8.912791 -3.296084 1.426298 0.787987 3.625258 1.460252 9.539896 -73.781063 8.629845 -68.656945 -118.688976 -80.685004 0.000001 -0.000001 -0.000004 35.976901 -16.755969 4.898802 -0.000006 -0.000002 -2.999980 -4.999912 -7.998885 0.000029 -12.034314 57.030160 14.103804 -48.860346 132.859952 48.788516 -0.000001 0.000001 0.000003 19.884863 19.367118 -2.746031 -0.000001 -0.000004 2.999989 -5.000255 7.999191 -0.000193 -82.053030 -177.498325 3.843400 179.999991 -0.000005 -1.247993 106.311997 -1.244272 -3.739669 0.000003 0.000000 1.682321 67.137064 7.248963 1.359169 25.456957 -7.355616 0.000003 -84.971945 162.264586 -1.070261 -0.000004 -0.000004 -0.837568 -79.916758 -1.365220 2.800166 -0.000008 -0.000001 -1.954239 67.301208 -7.241139 -1.384976 25.456955 7.355615 -0.000012 
52.784805 6.588085 58.694691 0.513427 3.199792 -3.577720 -1.084407 -0.399567 0.219229 1.839480 -0.801101 0.444855 3.484597 -0.795715 0.454420 8.949378 -3.274228 1.430001 0.762223 3.610031 1.462703 9.574104 -73.772129 8.668214 -68.669479 -118.682678 -80.707523 0.000002 -0.000001 -0.000005 35.983793 -16.759655 4.901725 -0.000007 -0.000002 -2.999979 -4.999911 -7.998886 0.000029 -12.008326 57.037318 14.072960 -48.873374 132.848300 48.801466 -0.000001 0.000001 0.000003 19.883721 19.369920 -2.746662 0.000001 -0.000002 2.999991 -5.000259 7.999188 -0.000193 -82.050967 -177.505278 3.849859 179.999991 -0.000004 -1.247993 106.316457 -1.251666 -3.744555 0.000003 0.000001 1.682321 67.143799 7.248954 1.359324 25.456957 -7.355616 0.000003 -84.977669 162.256143 -1.058444 -0.000004 -0.000005 -0.837977 -79.910563 -1.367186 2.798032 -0.000009 -0.000001 -1.954681 67.298988 -7.241128 -1.384419 25.456952 7.355614 -0.000012 
52.787701 6.582851 58.685688 0.516199 3.212660 -3.579551 -1.083786 -0.402504 0.219385 1.840023 -0.806976 0.445454 3.485142 -0.801582 0.455089 8.985591 -3.252497 1.433609 0.736393 3.595044 1.465062 9.606818 -73.763051 8.704999 -68.682347 -118.676763 -80.730848 -0.000000 -0.000001 -0.000007 35.990408 -16.763569 4.904721 -0.000009 -0.000002 -2.999981 -4.999905 -7.998884 0.000027 -11.982944 57.044125 14.042839 -48.886618 132.836797 48.815297 -0.000001 0.000001 0.000002 19.882411 19.373026 -2.747400 -0.000002 -0.000002 2.999991 -5.000254 7.999188 -0.000193 -82.049191 -177.511999 3.856632 179.999991 -0.000004 -1.247993 106.320835 -1.258775 -3.749484 0.000002 0.000000 1.682321 67.150417 7.248934 1.359384 25.456959 -7.355616 0.000003 -84.982846 162.248179 -1.048290 -0.000004 -0.000005 -0.838350 -79.904457 -1.369054 2.795993 -0.000008 -0.000001 -1.955100 67.296775 -7.241116 -1.383963 25.456953 7.355614 -0.000013 
